<svg height="512pt" viewBox="0 -14 512.00088 512" width="512pt" xmlns="http://www.w3.org/2000/svg"><path d="m504.425781 140.390625-33.113281 15.425781c-12.941406 6.027344-23.335938 16.457032-29.347656 29.4375l-6.066406 13.113282c-6.011719 12.984374-16.40625 23.414062-29.347657 29.441406l-13.0625 6.082031c-12.945312 6.03125-23.34375 16.460937-29.351562 29.441406l-6.0625 13.105469c-6.011719 12.984375-16.40625 23.414062-29.351563 29.445312l-13.058594 6.082032c-12.945312 6.027344-23.339843 16.457031-29.351562 29.441406l-6.0625 13.101562c-6.007812 12.980469-16.40625 23.414063-29.347656 29.441407l-13.0625 6.082031c-12.945313 6.03125-23.339844 16.460938-29.347656 29.445312l-6.066407 13.101563c-6.007812 12.984375-16.40625 23.414063-29.347656 29.441406l-33.105469 15.417969-132.398437-132.820312 33.105469-15.417969c12.941406-6.027344 23.339843-16.457031 29.347656-29.441407l6.0625-13.101562c6.011718-12.984375 16.40625-23.414062 29.351562-29.441406l13.0625-6.085938c12.941406-6.027344 23.339844-16.457031 29.347656-29.441406l6.0625-13.101562c6.007813-12.984376 16.40625-23.414063 29.351563-29.441407l13.058594-6.085937c12.941406-6.027344 23.339843-16.457032 29.347656-29.441406l6.066406-13.105469c6.007813-12.984375 16.40625-23.414063 29.347657-29.441407l13.0625-6.082031c12.945312-6.03125 23.339843-16.457031 29.351562-29.441406l6.066406-13.113281c6.011719-12.980469 16.40625-23.410156 29.347656-29.4375l33.113282-15.425782zm0 0" fill="#ef9aa0"/><path d="m358.414062 13.914062 111.539063 111.890626c4.945313 4.960937 3.464844 13.347656-2.878906 16.300781l-6.441407 3c-12.9375 6.027343-23.335937 16.457031-29.34375 29.441406l-6.070312 13.109375c-6.007812 12.984375-16.40625 23.414062-29.347656 29.441406l-13.0625 6.085938c-12.941406 6.027344-23.339844 16.457031-29.347656 29.4375l-6.066407 13.105468c-6.007812 12.984376-16.40625 23.414063-29.351562 29.445313l-13.058594 6.078125c-12.941406 6.03125-23.339844 16.460938-29.347656 29.445312l-6.0625 13.101563c-6.011719 12.984375-16.40625 23.414063-29.351563 29.441406l-13.0625 6.085938c-12.941406 6.027343-23.339844 16.457031-29.347656 29.441406l-6.0625 13.101563c-6.007812 12.984374-16.40625 23.414062-29.351562 29.441406l-33.101563 15.421875 10.675781 10.710937 33.105469-15.421875c12.941406-6.027343 23.339844-16.457031 29.347656-29.441406l6.066407-13.101563c6.007812-12.984374 16.402343-23.414062 29.347656-29.441406l13.0625-6.085937c12.941406-6.027344 23.339844-16.457031 29.347656-29.441407l6.0625-13.101562c6.011719-12.984375 16.40625-23.414062 29.351562-29.441406l13.058594-6.082032c12.945313-6.027343 23.339844-16.457031 29.351563-29.441406l6.0625-13.105468c6.011719-12.984376 16.40625-23.414063 29.351562-29.441407l13.0625-6.085937c12.941407-6.027344 23.339844-16.457032 29.347657-29.4375l6.070312-13.113282c6.007812-12.984374 16.402344-23.410156 29.34375-29.441406l19.503906-9.082031 13.609375-6.339844-132.398437-132.820312zm0 0" fill="#ea7f87"/><path d="m473.105469 108.972656-33.113281 15.425782c-12.941407 6.027343-23.335938 16.457031-29.347657 29.4375l-6.066406 13.113281c-6.007813 12.984375-16.40625 23.410156-29.347656 29.441406l-13.0625 6.082031c-12.945313 6.027344-23.339844 16.457032-29.351563 29.441406l-6.0625 13.105469c-6.011718 12.984375-16.40625 23.414063-29.351562 29.441407l-13.058594 6.085937c-12.945312 6.027344-23.339844 16.457031-29.351562 29.441406l-6.0625 13.101563c-6.007813 12.984375-16.40625 23.414062-29.347657 29.441406l-13.0625 6.085938c-12.941406 6.027343-23.339843 16.457031-29.347656 29.441406l-6.066406 13.101562c-6.007813 12.984375-16.40625 23.414063-29.347657 29.441406l-33.105468 15.417969-27.050782-27.132812 33.105469-15.417969c12.945313-6.03125 23.339844-16.460938 29.351563-29.445312l6.0625-13.101563c6.007812-12.984375 16.40625-23.414063 29.347656-29.441406l13.0625-6.082031c12.945312-6.03125 23.339844-16.460938 29.351562-29.445313l6.0625-13.101563c6.007813-12.984374 16.40625-23.414062 29.347657-29.441406l13.0625-6.082031c12.941406-6.027344 23.339843-16.460937 29.347656-29.441406l6.066406-13.105469c6.007813-12.984375 16.40625-23.414062 29.347657-29.441406l13.0625-6.085938c12.941406-6.027344 23.339843-16.457031 29.347656-29.441406l6.070312-13.113281c6.007813-12.980469 16.40625-23.410157 29.347656-29.4375l33.109376-15.421875zm0 0" fill="#fbf0dc"/><path d="m473.105469 108.972656-27.050781-27.132812-13.609376 6.339844 10.789063 10.820312c3.363281 3.375 2.339844 9.066406-1.988281 11.058594l-10.675782 4.914062c-12.941406 6.027344-23.339843 16.457032-29.347656 29.4375l-6.070312 13.113282c-6.007813 12.984374-16.40625 23.414062-29.347656 29.441406l-13.0625 6.082031c-12.941407 6.027344-23.339844 16.460937-29.347657 29.441406l-6.066406 13.105469c-6.007813 12.984375-16.40625 23.414062-29.347656 29.441406l-13.0625 6.085938c-12.941407 6.027344-23.339844 16.457031-29.347657 29.441406l-6.0625 13.101562c-6.011718 12.984376-16.40625 23.414063-29.351562 29.441407l-13.0625 6.085937c-12.941406 6.027344-23.339844 16.457032-29.347656 29.441406l-6.0625 13.101563c-6.011719 12.984375-16.40625 23.414063-29.351563 29.441406l-33.082031 15.410157 9.402344 9.433593 33.105468-15.417969c12.945313-6.027343 23.339844-16.457031 29.347657-29.441406l6.066406-13.101562c6.007813-12.984375 16.40625-23.414063 29.347656-29.445313l13.0625-6.082031c12.945313-6.027344 23.339844-16.460938 29.351563-29.441406l6.0625-13.101563c6.007812-12.984375 16.40625-23.417969 29.347656-29.445312l13.0625-6.082031c12.941406-6.027344 23.339844-16.457032 29.347656-29.441407l6.066406-13.105469c6.007813-12.984374 16.40625-23.414062 29.347657-29.441406l13.0625-6.085937c12.941406-6.027344 23.339843-16.457031 29.347656-29.4375l6.070313-13.113281c6.007812-12.984376 16.40625-23.410157 29.347656-29.441407l19.5-9.082031zm0 0" fill="#f7e5c1"/><path d="m423.277344 58.988281-33.113282 15.421875c-12.941406 6.027344-23.335937 16.457032-29.34375 29.441406l-6.070312 13.113282c-6.007812 12.980468-16.40625 23.410156-29.347656 29.4375l-13.0625 6.085937c-12.945313 6.027344-23.339844 16.457031-29.351563 29.441407l-6.0625 13.105468c-6.011719 12.984375-16.40625 23.414063-29.351562 29.441406l-13.058594 6.082032c-12.941406 6.027344-23.339844 16.460937-29.351563 29.441406l-6.0625 13.101562c-6.007812 12.984376-16.40625 23.414063-29.347656 29.445313l-13.0625 6.082031c-12.941406 6.027344-23.339844 16.460938-29.347656 29.441406l-6.066406 13.105469c-6.007813 12.980469-16.40625 23.414063-29.347656 29.441407l-33.105469 15.417968-27.050781-27.136718 33.105468-15.417969c12.945313-6.027344 23.339844-16.457031 29.351563-29.441407l6.0625-13.101562c6.007812-12.984375 16.40625-23.414062 29.347656-29.441406l13.0625-6.085938c12.945313-6.027344 23.339844-16.457031 29.351563-29.441406l6.0625-13.101562c6.007812-12.984376 16.40625-23.414063 29.347656-29.441407l13.0625-6.085937c12.941406-6.027344 23.339844-16.457032 29.347656-29.441406l6.066406-13.105469c6.007813-12.984375 16.40625-23.414063 29.347656-29.441407l13.0625-6.082031c12.941407-6.03125 23.339844-16.457031 29.347657-29.441406l6.070312-13.113281c6.007813-12.980469 16.40625-23.410156 29.347657-29.4375l33.109374-15.425782zm0 0" fill="#fbf0dc"/><path d="m423.007812 59.113281.269532-.125-.019532-.019531-27.027343-27.117188-13.609375 6.339844 8.019531 8.050782c4.394531 4.40625 3.074219 11.835937-2.5625 14.464843l-7.925781 3.691407c-12.941406 6.027343-23.339844 16.457031-29.347656 29.4375l-6.066407 13.113281c-6.011719 12.984375-16.40625 23.410156-29.351562 29.441406l-13.0625 6.082031c-12.941407 6.027344-23.339844 16.457032-29.347657 29.441406l-6.066406 13.105469c-6.007812 12.984375-16.40625 23.414063-29.347656 29.441407l-13.058594 6.085937c-12.945312 6.027344-23.34375 16.457031-29.351562 29.441406l-6.0625 13.101563c-6.007813 12.984375-16.40625 23.414062-29.347656 29.441406l-13.0625 6.082031c-12.945313 6.03125-23.339844 16.460938-29.351563 29.445313l-6.0625 13.101562c-6.007813 12.984375-16.40625 23.414063-29.347656 29.441406l-33.085938 15.410157 9.992188 10.023437 33.105469-15.417968c12.945312-6.027344 23.339843-16.460938 29.351562-29.441407l6.0625-13.105469c6.007812-12.980468 16.40625-23.414062 29.347656-29.441406l13.0625-6.082031c12.945313-6.027344 23.339844-16.460937 29.351563-29.445313l6.0625-13.101562c6.007812-12.980469 16.40625-23.414062 29.347656-29.441406l13.0625-6.082032c12.941406-6.027343 23.339844-16.457031 29.347656-29.441406l6.066407-13.105468c6.007812-12.984376 16.40625-23.414063 29.347656-29.441407l13.0625-6.085937c12.941406-6.027344 23.339844-16.457032 29.347656-29.4375l6.070312-13.113282c6.011719-12.984374 16.40625-23.414062 29.347657-29.441406l19.5-9.082031h.003906zm0 0" fill="#f7e5c1"/><path d="m509.789062 135.046875-132.398437-132.820313c-2.25-2.257812-5.671875-2.863281-8.5625-1.519531l-33.113281 15.425781c-14.539063 6.773438-26.269532 18.535157-33.019532 33.121094l-6.070312 13.113282c-5.25 11.34375-14.367188 20.488281-25.671875 25.753906l-13.0625 6.085937c-14.542969 6.773438-26.273437 18.535157-33.027344 33.125l-6.0625 13.105469c-5.25 11.34375-14.371093 20.492188-25.675781 25.757812l-13.058594 6.082032c-3.792968 1.765625-5.433594 6.273437-3.667968 10.0625 1.765624 3.792968 6.273437 5.433594 10.0625 3.667968l13.058593-6.082031c14.546875-6.773437 26.273438-18.539062 33.027344-33.125l6.066406-13.105469c5.25-11.34375 14.367188-20.492187 25.671875-25.757812l13.0625-6.082031c14.542969-6.777344 26.273438-18.539063 33.023438-33.125l6.070312-13.113281c5.25-11.34375 14.367188-20.488282 25.671875-25.753907l28.296875-13.179687 12.828125 12.863281-23.320312 10.863281c-14.542969 6.773438-26.269531 18.535156-33.023438 33.121094l-6.066406 13.113281c-5.25 11.34375-14.367187 20.492188-25.671875 25.757813l-13.0625 6.082031c-14.546875 6.773437-26.273438 18.539063-33.027344 33.125l-6.066406 13.105469c-5.246094 11.34375-14.367188 20.492187-25.671875 25.757812l-13.0625 6.082032c-14.542969 6.773437-26.269531 18.539062-33.023437 33.128906l-6.0625 13.101562c-5.25 11.34375-14.367188 20.492188-25.675782 25.753906l-13.058594 6.085938c-14.546874 6.773438-26.273437 18.539062-33.027343 33.125l-6.0625 13.105469c-5.25 11.34375-14.367188 20.492187-25.675781 25.757812l-28.289063 13.175781-12.828125-12.867187 23.3125-10.859375c14.546875-6.773438 26.273438-18.535156 33.027344-33.125l6.0625-13.101562c5.25-11.347657 14.367187-20.492188 25.671875-25.757813l13.0625-6.085937c14.546875-6.773438 26.273437-18.539063 33.027343-33.125l6.0625-13.101563c.824219-1.78125 1.757813-3.539063 2.78125-5.222656 2.167969-3.578125 1.023438-8.234375-2.554687-10.402344s-8.234375-1.027344-10.402344 2.550781c-1.3125 2.164063-2.511719 4.421875-3.570312 6.710938l-6.066407 13.105468c-5.25 11.34375-14.367187 20.488282-25.671874 25.757813l-13.0625 6.082031c-14.542969 6.773438-26.273438 18.539063-33.027344 33.128906l-6.0625 13.101563c-5.25 11.34375-14.367188 20.492187-25.671875 25.753906l-33.105469 15.421875c-2.238281 1.042969-3.828125 3.109375-4.257812 5.542969-.433594 2.429687.347656 4.917969 2.09375 6.667969l132.398437 132.820312c1.453125 1.457032 3.394531 2.226563 5.367187 2.226563 1.082032 0 2.171876-.230469 3.195313-.707031l33.105469-15.417969c14.542968-6.777344 26.273437-18.539063 33.023437-33.128907l6.066407-13.101562c5.246093-11.34375 14.363281-20.492188 25.671874-25.757812l13.0625-6.082032c14.542969-6.777344 26.273438-18.539062 33.023438-33.128906l6.0625-13.101562c5.25-11.34375 14.371094-20.492188 25.675781-25.757813l13.058594-6.082031c14.546875-6.773438 26.273437-18.539063 33.027344-33.125l6.0625-13.105469c5.25-11.34375 14.371093-20.492187 25.675781-25.757813l13.0625-6.082031c14.542969-6.777343 26.269531-18.539062 33.023438-33.125l6.070312-13.113281c5.25-11.34375 14.367188-20.488281 25.667969-25.753906l33.113281-15.421875c2.242188-1.042969 3.828125-3.113281 4.261719-5.542969.425781-2.433594-.351563-4.921875-2.097657-6.671875zm-437.972656 263.292969 23.3125-10.859375c14.542969-6.777344 26.269532-18.539063 33.023438-33.128907l6.0625-13.101562c5.25-11.34375 14.371094-20.492188 25.675781-25.757812l13.0625-6.082032c14.542969-6.773437 26.269531-18.539062 33.023437-33.128906l6.0625-13.101562c5.25-11.34375 14.371094-20.492188 25.675782-25.757813l13.058594-6.082031c14.546874-6.773438 26.273437-18.539063 33.027343-33.125l6.0625-13.105469c5.25-11.34375 14.367188-20.492187 25.675781-25.757813l13.0625-6.082031c14.542969-6.773437 26.269532-18.539062 33.023438-33.125l6.070312-13.113281c5.25-11.34375 14.363282-20.488281 25.667969-25.753906l28.300781-13.179688 11.402344 11.4375-23.320312 10.863282c-14.542969 6.773437-26.269532 18.535156-33.023438 33.121093l-6.066406 13.113281c-5.25 11.34375-14.367188 20.488282-25.671875 25.753907l-13.0625 6.085937c-14.542969 6.769532-26.273437 18.535156-33.027344 33.125l-6.066406 13.105469c-5.25 11.34375-14.367187 20.492187-25.671875 25.753906l-13.058594 6.085938c-14.546875 6.773437-26.273437 18.535156-33.027344 33.125l-6.0625 13.101562c-5.25 11.34375-14.367187 20.492188-25.675781 25.757813l-13.058593 6.085937c-14.546876 6.773438-26.273438 18.535157-33.027344 33.125l-6.0625 13.101563c-5.25 11.347656-14.367188 20.492187-25.675782 25.757812l-28.289062 13.179688zm-3.738281-37.996094c14.546875-6.773438 26.273437-18.539062 33.023437-33.125l6.066407-13.101562c5.25-11.34375 14.367187-20.492188 25.671875-25.757813l13.0625-6.085937c14.546875-6.773438 26.273437-18.539063 33.027344-33.125l6.0625-13.101563c5.25-11.347656 14.367187-20.492187 25.671874-25.757813l13.058594-6.085937c14.546875-6.773437 26.277344-18.535156 33.027344-33.125l6.066406-13.101563c5.25-11.347656 14.367188-20.492187 25.671875-25.757812l13.0625-6.085938c14.542969-6.773437 26.273438-18.535156 33.027344-33.121093l6.066406-13.113281c5.25-11.34375 14.367188-20.492188 25.671875-25.753907l28.300782-13.183593 15.671874 15.722656-23.320312 10.863281c-14.542969 6.773437-26.269531 18.535156-33.019531 33.121094l-6.070313 13.113281c-5.25 11.34375-14.367187 20.492188-25.671875 25.753906l-13.0625 6.085938c-14.546875 6.773437-26.273437 18.539062-33.027343 33.125l-6.066407 13.105468c-5.246093 11.34375-14.367187 20.492188-25.671875 25.757813l-13.058594 6.082031c-14.546874 6.773438-26.273437 18.539063-33.027343 33.125l-6.0625 13.105469c-5.25 11.34375-14.367188 20.488281-25.675781 25.753906l-13.058594 6.085938c-14.546875 6.773437-26.273438 18.539062-33.027344 33.125l-6.0625 13.101562c-5.25 11.347657-14.367188 20.496094-25.675781 25.757813l-28.289063 13.179687-15.675781-15.722656zm400.035156-211.394531c-14.542969 6.777343-26.269531 18.539062-33.019531 33.125l-6.070312 13.113281c-5.25 11.34375-14.367188 20.488281-25.671876 25.753906l-13.0625 6.082032c-14.546874 6.777343-26.273437 18.539062-33.027343 33.128906l-6.0625 13.105468c-5.25 11.34375-14.371094 20.488282-25.675781 25.753907l-13.058594 6.085937c-14.546875 6.773438-26.273438 18.539063-33.027344 33.125l-6.0625 13.101563c-5.25 11.347656-14.367188 20.492187-25.671875 25.757812l-13.066406 6.082031c-14.542969 6.777344-26.269531 18.542969-33.023438 33.128907l-6.0625 13.101562c-5.25 11.34375-14.367187 20.492188-25.671875 25.757813l-28.292968 13.175781-19.945313-20.003906 23.3125-10.859375c14.542969-6.773438 26.273437-18.539063 33.023437-33.125l6.066407-13.105469c5.25-11.34375 14.367187-20.492187 25.671875-25.753906l13.0625-6.085938c14.546875-6.773437 26.273437-18.539062 33.023437-33.125l6.066407-13.101562c5.25-11.347657 14.367187-20.492188 25.671874-25.757813l13.058594-6.085937c14.546875-6.773438 26.273438-18.535157 33.027344-33.125l6.0625-13.105469c5.25-11.34375 14.371094-20.492188 25.675781-25.753906l13.0625-6.085938c2.285157-1.066406 4.539063-2.273437 6.695313-3.589844 3.570312-2.175781 4.699218-6.835937 2.519531-10.40625-2.175781-3.574218-6.839844-4.699218-10.40625-2.523437-1.679687 1.023437-3.429687 1.960937-5.203125 2.789063l-13.0625 6.082031c-14.546875 6.773437-26.273438 18.539062-33.027344 33.125l-6.0625 13.105469c-5.25 11.347656-14.371094 20.492187-25.675781 25.757812l-13.058594 6.082031c-14.546875 6.773438-26.273437 18.539063-33.027343 33.128907l-6.0625 13.101562c-5.25 11.34375-14.367188 20.492188-25.671876 25.757812l-13.0625 6.082032c-14.546874 6.773437-26.273437 18.539062-33.027343 33.128906l-6.0625 13.101562c-5.25 11.34375-14.367188 20.492188-25.671875 25.757813l-28.292969 13.175781-15.671875-15.722656 23.308594-10.859375c14.546875-6.773437 26.273437-18.539063 33.027344-33.125l6.0625-13.101563c5.25-11.347656 14.367187-20.492187 25.675781-25.757812l13.058593-6.085938c14.546876-6.773437 26.273438-18.539062 33.027344-33.125l6.0625-13.101562c5.25-11.347656 14.367188-20.492188 25.675782-25.757812l13.058593-6.082032c14.542969-6.777344 26.273438-18.539062 33.023438-33.128906l6.066406-13.105469c5.25-11.34375 14.367187-20.492187 25.671875-25.753906l13.066406-6.085937c14.542969-6.773438 26.269532-18.535157 33.023438-33.125l6.066406-13.109376c5.25-11.34375 14.367188-20.488281 25.671875-25.753906l28.300781-13.183594 15.671875 15.722657-23.320312 10.863281c-14.542969 6.773438-26.269531 18.535156-33.023438 33.121094l-6.066406 13.113281c-1.757813 3.796875-.105469 8.296875 3.691406 10.054687 1.03125.476563 2.109375.703126 3.175781.703126 2.859376 0 5.601563-1.628907 6.878907-4.394532l6.070312-13.113281c5.25-11.339844 14.367188-20.488281 25.671875-25.753906l28.296875-13.179688 19.945313 20.007813zm0 0"/></svg>