<?xml version="1.0" encoding="iso-8859-1"?>
<!-- Generator: Adobe Illustrator 21.0.0, SVG Export Plug-In . SVG Version: 6.00 Build 0)  -->
<svg xmlns="http://www.w3.org/2000/svg" xmlns:xlink="http://www.w3.org/1999/xlink" version="1.1" id="Capa_1" x="0px" y="0px" viewBox="0 0 512 512" style="enable-background:new 0 0 512 512;" xml:space="preserve" width="512" height="512">
<g>
	<circle style="fill:#F57C7C;" cx="269" cy="82.5" r="75"/>
	<path style="fill:#EF6161;" d="M269,7.5c-5.137,0-10.153,0.519-15,1.503c34.233,6.949,60,37.213,60,73.497   c0,36.284-25.767,66.547-60,73.497c4.847,0.984,9.863,1.503,15,1.503c41.421,0,75-33.579,75-75S310.421,7.5,269,7.5z"/>
	<circle style="fill:#F57C7C;" cx="429.5" cy="202" r="75"/>
	<path style="fill:#EF6161;" d="M429.5,127c-5.137,0-10.153,0.519-15,1.503c34.233,6.949,60,37.213,60,73.497   c0,36.284-25.767,66.547-60,73.497c4.847,0.984,9.863,1.503,15,1.503c41.421,0,75-33.579,75-75S470.921,127,429.5,127z"/>
	<circle style="fill:#F57C7C;" cx="82.5" cy="192" r="75"/>
	<path style="fill:#EF6161;" d="M82.5,117c-5.137,0-10.153,0.519-15,1.503c34.233,6.949,60,37.213,60,73.497   c0,36.284-25.767,66.547-60,73.497c4.847,0.984,9.863,1.503,15,1.503c41.421,0,75-33.579,75-75S123.921,117,82.5,117z"/>
	<circle style="fill:#F57C7C;" cx="117" cy="413.438" r="75"/>
	<path style="fill:#EF6161;" d="M117,338.438c-5.137,0-10.153,0.52-15,1.503c34.233,6.949,60,37.213,60,73.497   c0,36.284-25.767,66.547-60,73.497c4.847,0.984,9.863,1.503,15,1.503c41.421,0,75-33.579,75-75S158.421,338.438,117,338.438z"/>
	<circle style="fill:#F57C7C;" cx="409" cy="429.5" r="75"/>
	<path style="fill:#EF6161;" d="M409,354.5c-5.137,0-10.153,0.519-15,1.503c34.233,6.95,60,37.213,60,73.497   s-25.767,66.547-60,73.497c4.847,0.984,9.863,1.503,15,1.503c41.421,0,75-33.579,75-75S450.421,354.5,409,354.5z"/>
	<circle style="fill:#F57C7C;" cx="261" cy="280.765" r="75"/>
	<path style="fill:#EF6161;" d="M261,205.765c-5.137,0-10.153,0.519-15,1.503c34.233,6.949,60,37.213,60,73.497   s-25.767,66.548-60,73.497c4.847,0.984,9.863,1.503,15,1.503c41.421,0,75-33.579,75-75C336,239.344,302.421,205.765,261,205.765z"/>
	<g>
		<path d="M269,165c45.49,0,82.5-37.01,82.5-82.5S314.49,0,269,0c-45.491,0-82.5,37.01-82.5,82.5S223.509,165,269,165z M269,15    c37.22,0,67.5,30.28,67.5,67.5S306.22,150,269,150s-67.5-30.28-67.5-67.5S231.78,15,269,15z"/>
		<path d="M237.667,103.765c4.142,0,7.5-3.357,7.5-7.5v-3.75c0-4.143-3.358-7.5-7.5-7.5s-7.5,3.357-7.5,7.5v3.75    C230.167,100.407,233.524,103.765,237.667,103.765z"/>
		<path d="M256.521,50.366c1.142,0,2.301-0.262,3.389-0.814l3.344-1.697c3.693-1.875,5.168-6.389,3.293-10.082    c-1.874-3.694-6.387-5.17-10.082-3.293l-3.344,1.697c-3.694,1.875-5.168,6.389-3.293,10.082    C251.149,48.865,253.786,50.366,256.521,50.366z"/>
		<path d="M275.333,119.691l-2.832-2.459c-3.127-2.715-7.863-2.382-10.58,0.746c-2.716,3.128-2.382,7.864,0.746,10.58l2.832,2.459    c1.42,1.232,3.171,1.837,4.914,1.837c2.097,0,4.183-0.875,5.666-2.583C278.795,127.144,278.461,122.407,275.333,119.691z"/>
		<path d="M304.49,84.462c0.776,0.255,1.565,0.376,2.341,0.376c3.153,0,6.088-2.004,7.125-5.162l1.17-3.563    c1.292-3.936-0.851-8.173-4.786-9.466c-3.934-1.291-8.174,0.852-9.466,4.786l-1.17,3.563    C298.412,78.932,300.555,83.169,304.49,84.462z"/>
		<path d="M265.947,76.841l0.675,3.689c0.662,3.618,3.817,6.151,7.369,6.151c0.448,0,0.902-0.04,1.358-0.123    c4.074-0.745,6.773-4.652,6.028-8.728l-0.675-3.689c-0.746-4.075-4.657-6.771-8.728-6.028    C267.901,68.858,265.202,72.766,265.947,76.841z"/>
		<path d="M429.5,284.5c45.49,0,82.5-37.01,82.5-82.5s-37.01-82.5-82.5-82.5c-18.688,0-36.996,6.423-51.551,18.087    c-3.232,2.59-3.754,7.31-1.163,10.542c2.59,3.232,7.311,3.756,10.542,1.163c12.077-9.677,26.66-14.792,42.172-14.792    c37.22,0,67.5,30.28,67.5,67.5s-30.28,67.5-67.5,67.5S362,239.22,362,202c0-10.753,2.451-21.027,7.285-30.538    c1.877-3.692,0.405-8.207-3.287-10.084c-3.691-1.877-8.208-0.406-10.084,3.287C349.999,176.302,347,188.863,347,202    C347,247.49,384.01,284.5,429.5,284.5z"/>
		<path d="M405.667,215.765v-3.75c0-4.143-3.357-7.5-7.5-7.5s-7.5,3.357-7.5,7.5v3.75c0,4.143,3.357,7.5,7.5,7.5    S405.667,219.907,405.667,215.765z"/>
		<path d="M416.964,153.979l-3.344,1.697c-3.693,1.875-5.168,6.389-3.293,10.082c1.322,2.606,3.958,4.107,6.693,4.107    c1.142,0,2.301-0.262,3.389-0.814l3.344-1.697c3.693-1.875,5.168-6.389,3.293-10.082    C425.171,153.578,420.658,152.103,416.964,153.979z"/>
		<path d="M433.001,236.732c-3.127-2.715-7.863-2.382-10.58,0.746c-2.716,3.128-2.382,7.864,0.746,10.58l2.832,2.459    c1.42,1.232,3.171,1.837,4.914,1.837c2.097,0,4.183-0.875,5.666-2.583c2.716-3.128,2.382-7.864-0.746-10.58L433.001,236.732z"/>
		<path d="M467.331,204.338c3.153,0,6.088-2.004,7.125-5.162l1.17-3.563c1.292-3.936-0.851-8.173-4.786-9.466    c-3.934-1.292-8.174,0.852-9.466,4.786l-1.17,3.563c-1.292,3.936,0.851,8.173,4.786,9.466    C465.767,204.217,466.556,204.338,467.331,204.338z"/>
		<path d="M441.878,197.331l-0.675-3.689c-0.746-4.075-4.656-6.768-8.728-6.028c-4.074,0.745-6.773,4.652-6.028,8.728l0.675,3.689    c0.662,3.618,3.817,6.151,7.369,6.151c0.448,0,0.902-0.04,1.358-0.123C439.924,205.313,442.623,201.406,441.878,197.331z"/>
		<path d="M102.231,272.124c4.023-0.987,6.483-5.049,5.496-9.072c-0.987-4.022-5.052-6.483-9.071-5.496    C93.4,258.846,87.965,259.5,82.5,259.5C45.28,259.5,15,229.22,15,192s30.28-67.5,67.5-67.5S150,154.78,150,192    c0,20.78-9.364,40.098-25.691,52.997c-3.25,2.567-3.803,7.284-1.235,10.534c2.567,3.251,7.284,3.803,10.534,1.235    C153.558,241.005,165,217.398,165,192c0-45.49-37.009-82.5-82.5-82.5S0,146.51,0,192s37.009,82.5,82.5,82.5    C89.168,274.5,95.807,273.7,102.231,272.124z"/>
		<path d="M43.667,202.015v3.75c0,4.143,3.358,7.5,7.5,7.5s7.5-3.357,7.5-7.5v-3.75c0-4.143-3.358-7.5-7.5-7.5    S43.667,197.872,43.667,202.015z"/>
		<path d="M80.046,147.272c-1.875-3.694-6.391-5.17-10.083-3.293l-3.344,1.697c-3.694,1.875-5.168,6.389-3.293,10.082    c1.323,2.606,3.959,4.107,6.694,4.107c1.142,0,2.301-0.262,3.389-0.814l3.344-1.697C80.447,155.479,81.921,150.966,80.046,147.272    z"/>
		<path d="M76.167,238.059l2.832,2.459c1.419,1.232,3.17,1.837,4.914,1.837c2.098,0,4.184-0.875,5.667-2.583    c2.716-3.128,2.382-7.864-0.746-10.58l-2.832-2.459c-3.128-2.716-7.865-2.382-10.58,0.746    C72.705,230.606,73.039,235.343,76.167,238.059z"/>
		<path d="M127.456,189.176l1.17-3.563c1.292-3.936-0.85-8.173-4.786-9.466c-3.933-1.292-8.173,0.85-9.465,4.786l-1.17,3.563    c-1.292,3.936,0.85,8.173,4.786,9.466c0.777,0.255,1.565,0.376,2.341,0.376C123.484,194.338,126.418,192.334,127.456,189.176z"/>
		<path d="M94.877,187.331l-0.675-3.689c-0.746-4.074-4.652-6.769-8.727-6.028c-4.074,0.745-6.773,4.652-6.028,8.728l0.675,3.689    c0.662,3.618,3.817,6.151,7.369,6.151c0.448,0,0.902-0.04,1.358-0.123C92.924,195.313,95.623,191.406,94.877,187.331z"/>
		<path d="M117,330.938c-45.491,0-82.5,37.01-82.5,82.5s37.009,82.5,82.5,82.5s82.5-37.01,82.5-82.5S162.491,330.938,117,330.938z     M117,480.938c-37.22,0-67.5-30.28-67.5-67.5s30.28-67.5,67.5-67.5s67.5,30.28,67.5,67.5S154.22,480.938,117,480.938z"/>
		<path d="M85.667,415.953c-4.142,0-7.5,3.357-7.5,7.5v3.75c0,4.143,3.358,7.5,7.5,7.5s7.5-3.357,7.5-7.5v-3.75    C93.167,419.311,89.809,415.953,85.667,415.953z"/>
		<path d="M114.545,368.708c-1.876-3.693-6.392-5.167-10.083-3.29l-3.344,1.698c-3.693,1.875-5.167,6.39-3.291,10.083    c1.323,2.604,3.958,4.105,6.693,4.105c1.142,0,2.302-0.263,3.39-0.815l3.344-1.698    C114.948,376.916,116.421,372.401,114.545,368.708z"/>
		<path d="M123.332,450.628l-2.832-2.458c-3.129-2.716-7.866-2.381-10.58,0.748c-2.715,3.128-2.38,7.865,0.748,10.58l2.832,2.458    c1.419,1.232,3.17,1.836,4.913,1.836c2.098,0,4.185-0.875,5.667-2.584C126.795,458.08,126.46,453.343,123.332,450.628z"/>
		<path d="M158.339,397.585c-3.934-1.293-8.173,0.851-9.465,4.786l-1.17,3.563c-1.292,3.936,0.851,8.174,4.787,9.466    c0.777,0.255,1.565,0.376,2.341,0.376c3.153,0,6.087-2.004,7.125-5.162l1.17-3.563    C164.418,403.115,162.275,398.877,158.339,397.585z"/>
		<path d="M128.703,405.08c-0.746-4.074-4.656-6.773-8.727-6.028c-4.075,0.746-6.773,4.653-6.028,8.728l0.675,3.688    c0.662,3.618,3.817,6.151,7.369,6.151c0.448,0,0.902-0.04,1.358-0.123c4.075-0.746,6.773-4.653,6.028-8.728L128.703,405.08z"/>
		<path d="M409,347c-35.925,0-67.478,22.95-78.517,57.108c-1.273,3.941,0.889,8.17,4.83,9.443c3.943,1.275,8.17-0.888,9.443-4.83    C353.787,380.775,379.604,362,409,362c37.22,0,67.5,30.28,67.5,67.5S446.22,497,409,497c-34.325,0-63.152-25.673-67.057-59.717    c-0.472-4.116-4.191-7.071-8.306-6.597c-4.115,0.472-7.068,4.19-6.597,8.306C331.813,480.613,367.049,512,409,512    c45.49,0,82.5-37.01,82.5-82.5S454.49,347,409,347z"/>
		<path d="M380.689,459.805l1.896,3.236c1.396,2.384,3.903,3.711,6.479,3.711c1.288,0,2.593-0.332,3.783-1.029    c3.574-2.094,4.775-6.688,2.682-10.262l-1.896-3.236c-2.094-3.576-6.691-4.773-10.262-2.682    C379.797,451.637,378.596,456.23,380.689,459.805z"/>
		<path d="M384.423,394.181c-3.484-2.241-8.125-1.23-10.364,2.256l-2.027,3.154c-2.239,3.485-1.229,8.125,2.255,10.364    c1.255,0.807,2.659,1.191,4.048,1.191c2.467,0,4.884-1.217,6.316-3.447l2.027-3.154    C388.917,401.06,387.907,396.42,384.423,394.181z"/>
		<path d="M420.959,465.733c-0.764,4.071,1.917,7.99,5.988,8.754l3.686,0.691c0.468,0.088,0.933,0.13,1.392,0.13    c3.537,0,6.687-2.515,7.362-6.118c0.764-4.071-1.917-7.99-5.988-8.754l-3.686-0.691    C425.639,458.979,421.723,461.663,420.959,465.733z"/>
		<path d="M439.17,415.473c0.523,0,1.056-0.056,1.588-0.17c4.049-0.873,6.624-4.863,5.752-8.912l-0.79-3.666    c-0.872-4.048-4.854-6.622-8.912-5.752c-4.049,0.873-6.624,4.863-5.752,8.912l0.79,3.666    C432.604,413.067,435.713,415.473,439.17,415.473z"/>
		<path d="M411.781,433.65c1.732,0,3.474-0.597,4.889-1.815c3.14-2.701,3.495-7.437,0.793-10.576l-2.446-2.843    c-2.703-3.142-7.438-3.495-10.576-0.793c-3.14,2.701-3.495,7.437-0.793,10.576l2.446,2.843    C407.577,432.767,409.673,433.65,411.781,433.65z"/>
		<path d="M261,198.265c-45.491,0-82.5,37.01-82.5,82.5s37.009,82.5,82.5,82.5c45.49,0,82.5-37.01,82.5-82.5    S306.49,198.265,261,198.265z M261,348.265c-37.22,0-67.5-30.28-67.5-67.5s30.28-67.5,67.5-67.5s67.5,30.28,67.5,67.5    S298.22,348.265,261,348.265z"/>
		<path d="M246.859,304.504c-2.285-3.455-6.938-4.402-10.393-2.119c-3.455,2.284-4.404,6.938-2.119,10.393l2.068,3.128    c2.277,3.445,6.926,4.41,10.393,2.119c3.455-2.284,4.404-6.938,2.119-10.393L246.859,304.504z"/>
		<path d="M235.462,260.535l1.853-3.26c2.047-3.602,0.787-8.18-2.815-10.227c-3.601-2.046-8.179-0.786-10.226,2.814l-1.853,3.26    c-2.047,3.602-0.787,8.18,2.815,10.227C228.859,265.409,233.428,264.112,235.462,260.535z"/>
		<path d="M287.012,310.536l-3.718-0.489c-4.106-0.544-7.875,2.35-8.414,6.457c-0.541,4.106,2.351,7.874,6.457,8.414l3.718,0.489    c0.332,0.044,0.662,0.065,0.988,0.065c3.706,0,6.93-2.748,7.426-6.522C294.01,314.844,291.118,311.076,287.012,310.536z"/>
		<path d="M296.168,252.235c-1.094-3.994-5.214-6.348-9.214-5.253c-3.995,1.094-6.347,5.219-5.253,9.214l0.99,3.617    c1.086,3.967,5.193,6.354,9.214,5.253c3.995-1.094,6.347-5.219,5.253-9.214L296.168,252.235z"/>
		<path d="M266.368,269.579c-2.869-2.988-7.617-3.085-10.604-0.215c-2.988,2.868-3.084,7.616-0.215,10.604l2.598,2.705    c2.872,2.992,7.622,3.08,10.604,0.215c2.988-2.868,3.084-7.616,0.215-10.604L266.368,269.579z"/>
	</g>
</g>















</svg>
